<svg width="24" height="24" viewBox="0 0 24 24" fill="none" xmlns="http://www.w3.org/2000/svg">
<g id="Misc / Clear icon">
<g id="Close">
<path fill-rule="evenodd" clip-rule="evenodd" d="M12 21C16.9706 21 21 16.9706 21 12C21 7.02944 16.9706 3 12 3C7.02944 3 3 7.02944 3 12C3 16.9706 7.02944 21 12 21ZM7.75734 7.75738C8.14787 7.36685 8.78103 7.36685 9.17156 7.75738L12 10.5858L14.8284 7.75736C15.2189 7.36683 15.8521 7.36683 16.2426 7.75736C16.6331 8.14788 16.6331 8.78105 16.2426 9.17157L13.4142 12L16.2426 14.8284C16.6331 15.219 16.6331 15.8521 16.2426 16.2427C15.8521 16.6332 15.2189 16.6332 14.8284 16.2427L12 13.4142L9.17152 16.2426C8.781 16.6332 8.14783 16.6332 7.75731 16.2426C7.36679 15.8521 7.36679 15.2189 7.75731 14.8284L10.5857 12L7.75734 9.17159C7.36682 8.78107 7.36682 8.1479 7.75734 7.75738Z" fill="white"/>
<path fill-rule="evenodd" clip-rule="evenodd" d="M12 21C16.9706 21 21 16.9706 21 12C21 7.02944 16.9706 3 12 3C7.02944 3 3 7.02944 3 12C3 16.9706 7.02944 21 12 21ZM7.75734 7.75738C8.14787 7.36685 8.78103 7.36685 9.17156 7.75738L12 10.5858L14.8284 7.75736C15.2189 7.36683 15.8521 7.36683 16.2426 7.75736C16.6331 8.14788 16.6331 8.78105 16.2426 9.17157L13.4142 12L16.2426 14.8284C16.6331 15.219 16.6331 15.8521 16.2426 16.2427C15.8521 16.6332 15.2189 16.6332 14.8284 16.2427L12 13.4142L9.17152 16.2426C8.781 16.6332 8.14783 16.6332 7.75731 16.2426C7.36679 15.8521 7.36679 15.2189 7.75731 14.8284L10.5857 12L7.75734 9.17159C7.36682 8.78107 7.36682 8.1479 7.75734 7.75738Z" fill="#171717" fill-opacity="0.6"/>
</g>
</g>
</svg>
